<svg width="46" height="46" viewBox="0 0 46 46" fill="none" xmlns="http://www.w3.org/2000/svg">
<path d="M32.1757 45V40.3166L36.0014 40.1472C37.9362 40.0616 39.5416 38.6481 39.8401 36.7676L40.783 30.8264L44.3596 29.4215C44.9289 29.1979 45.1692 28.534 44.8715 28.0073L40.3447 20L40.2792 18.8422C39.8582 11.3941 34.8278 5.22343 27.9999 2.94397M13.8885 45V39L10.568 37.2204C7.4918 35.5717 5.08972 33.0231 3.63818 30" stroke="white" stroke-width="2" stroke-miterlimit="10" stroke-linecap="square"/>
<path d="M4.5 18C2.567 18 1 19.567 1 21.5C1 23.433 2.567 25 4.5 25C6.433 25 8 23.433 8 21.5C8 19.567 6.433 18 4.5 18Z" stroke="white" stroke-width="2" stroke-miterlimit="10" stroke-linecap="square"/>
<path d="M19.5 1C17.567 1 16 2.567 16 4.5C16 6.433 17.567 8 19.5 8C21.433 8 23 6.433 23 4.5C23 2.567 21.433 1 19.5 1Z" stroke="white" stroke-width="2" stroke-miterlimit="10" stroke-linecap="square"/>
<path d="M5 12.5V6.5H11V12.5H5Z" stroke="white" stroke-width="2" stroke-miterlimit="10" stroke-linecap="square"/>
<path d="M33 24.0714V21.9286L30.5802 20.9609C30.4016 20.2945 30.1395 19.6645 29.8024 19.0803L30.828 16.6869L29.3131 15.172L26.9197 16.1976C26.3362 15.8605 25.7055 15.5991 25.0391 15.4198L24.0714 13H21.9286L20.9609 15.4198C20.2945 15.5984 19.6645 15.8605 19.0803 16.1976L16.6869 15.172L15.172 16.6869L16.1976 19.0803C15.8605 19.6638 15.5991 20.2945 15.4198 20.9609L13 21.9286V24.0714L15.4198 25.0391C15.5984 25.7055 15.8605 26.3355 16.1976 26.9197L15.172 29.3131L16.6869 30.828L19.0803 29.8024C19.6638 30.1395 20.2945 30.4009 20.9609 30.5802L21.9286 33H24.0714L25.0391 30.5802C25.7055 30.4016 26.3355 30.1395 26.9197 29.8024L29.3131 30.828L30.828 29.3131L29.8024 26.9197C30.1395 26.3362 30.4009 25.7055 30.5802 25.0391L33 24.0714Z" stroke="white" stroke-width="2" stroke-miterlimit="10" stroke-linecap="square"/>
<path d="M23 21.5C22.1716 21.5 21.5 22.1716 21.5 23C21.5 23.8284 22.1716 24.5 23 24.5C23.8284 24.5 24.5 23.8284 24.5 23C24.5 22.1716 23.8284 21.5 23 21.5Z" fill="white"/>
</svg>
