<svg width="40" height="43" viewBox="0 0 40 43" fill="none" xmlns="http://www.w3.org/2000/svg">
<path d="M23 22.4803L25.683 26.1274L30.0131 23.6274L28.1962 19.4803" stroke="white" stroke-width="2"/>
<path d="M25.0001 36.4278L25 33.2913L36.5 26.4277H37V36.4278" stroke="white" stroke-width="2" stroke-linecap="square"/>
<path d="M15 12.4277L5.97677 17.6912C4.13346 18.7665 3 20.7399 3 22.8739V28.9277" stroke="white" stroke-width="2"/>
<path d="M8.5 26.4278V23.5825C8.5 22.868 8.8812 22.2077 9.5 21.8504L17.5 17.2316" stroke="white" stroke-width="2"/>
<path d="M1 41.4277V33.9277C1 29.7856 4.35786 26.4277 8.5 26.4277C12.6421 26.4277 16 29.7856 16 33.9277V36.4277H39V38.9277C39 40.3084 37.8807 41.4277 36.5 41.4277H1Z" stroke="white" stroke-width="2" stroke-linecap="square"/>
<path d="M21.3221 23.4489L14.5312 11.7925C13.8342 10.5962 14.2423 9.06125 15.4413 8.36905L19.717 5.90041C20.9095 5.21197 22.4341 5.61729 23.1272 6.80699L29.928 18.4803L25.6251 20.9646L21.3221 23.4489Z" stroke="white" stroke-width="2" stroke-linecap="square"/>
<path d="M15.0544 8.59253L12.7716 4.73243C12.3468 4.01408 12.59 3.08712 13.3127 2.66984L15.8563 1.20132C16.5684 0.790164 17.4788 1.02901 17.8974 1.7368L20.1962 5.62388" stroke="white" stroke-width="2" stroke-linecap="square"/>
<path d="M8.5 36.4277C9.88071 36.4277 11 35.3084 11 33.9277C11 32.547 9.88071 31.4277 8.5 31.4277C7.11929 31.4277 6 32.547 6 33.9277C6 35.3084 7.11929 36.4277 8.5 36.4277Z" stroke="white" stroke-width="2"/>
</svg>
