<svg width="36" height="36" viewBox="0 0 36 36" fill="none" xmlns="http://www.w3.org/2000/svg">
<path d="M3 20.999C1.83713 22.7979 1.14905 24.8622 1 26.999C1 31.417 5 34.999 11 34.999C22.973 34.999 28.38 24.944 28.922 18.514C30.7742 17.8793 32.3689 16.6579 33.4643 15.0351C34.5597 13.4122 35.0959 11.4764 34.9918 9.52125C34.8876 7.56608 34.1487 5.69822 32.8871 4.20091C31.6256 2.70361 29.9101 1.65855 28.001 1.22423C26.0918 0.789909 24.0931 0.990015 22.3079 1.7942C20.5228 2.59839 19.0486 3.96279 18.1088 5.68048C17.1691 7.39817 16.8152 9.37545 17.1007 11.3125C17.3862 13.2495 18.2956 15.0405 19.691 16.414L16 17.999" stroke="white" stroke-width="2" stroke-miterlimit="10" stroke-linecap="square"/>
</svg>
