<svg width="27" height="44" viewBox="0 0 27 44" fill="none" xmlns="http://www.w3.org/2000/svg">
<path d="M5.5 2H25V5H5.5V2Z" fill="white"/>
<path d="M6.62994 11C6.19544 10.0485 5.87974 9.0411 5.69434 8H24V11H6.62994Z" fill="white"/>
<path d="M10.918 16.1084C10.0352 15.5015 9.24567 14.7908 8.55957 14H21.5V17H12.2148L10.918 16.1084Z" fill="white"/>
<path d="M21 43H1.5V40H21V43Z" fill="white"/>
<path d="M19.8701 34C20.3046 34.9515 20.6203 35.9589 20.8057 37H2.5V34H19.8701Z" fill="white"/>
<path d="M15.582 28.8916C16.4648 29.4985 17.2543 30.2092 17.9404 31H5V28H14.2852L15.582 28.8916Z" fill="white"/>
<path d="M24 39.1924C24 34.0884 21.4872 29.3115 17.2812 26.4199L8.0195 20.0527C2.9995 16.6015 0 10.8996 0 4.80762V0H3V4.80762C3 9.9116 5.5128 14.6885 9.7188 17.5801L18.9805 23.9473C24.0005 27.3985 27 33.1004 27 39.1924V44H24V39.1924Z" fill="white"/>
<path d="M3 39.1924C3 34.0884 5.5128 29.3115 9.7188 26.4199L18.9805 20.0527C24.0005 16.6015 27 10.8996 27 4.80762V0H24V4.80762C24 9.9116 21.4872 14.6885 17.2812 17.5801L8.0195 23.9473C2.9995 27.3985 0 33.1004 0 39.1924V44H3V39.1924Z" fill="white"/>
</svg>
