<svg width="184" height="74" viewBox="0 0 184 74" fill="none" xmlns="http://www.w3.org/2000/svg">
<path d="M94.4969 56.5457V57.0045H92.8659V58.1614H94.3828V58.6202H92.8659V60.123H92.282V56.5457H94.4969Z" fill="#DDEFFF"/>
<path d="M115.821 51.3326V47.5226H116.754V52.9551L115.707 52.8952L113.082 49.258C112.726 49.2315 113.022 49.3844 113.022 49.4309V52.7822C112.773 53.0814 112.324 52.9218 111.975 52.9551V47.5226L113.089 47.629L115.821 51.3326Z" fill="#DDEFFF"/>
<path d="M158.622 47.5226L159.649 47.5492L162.354 51.3393V47.5292H163.401V52.9617C163.005 52.9285 162.535 53.088 162.227 52.7955L159.555 49.145V52.9551L158.696 52.9418L158.535 52.7822C158.535 52.7356 158.622 52.6957 158.622 52.6691V47.5292V47.5226Z" fill="#DDEFFF"/>
<path d="M135.628 47.5425L137.863 52.955L136.809 52.9018L136.359 51.7515L133.97 51.6784C133.594 52.5295 133.694 53.1811 132.5 52.955L134.587 47.5957L135.628 47.5425ZM135.997 50.8738L135.124 48.7992L134.252 50.8738H136.003H135.997Z" fill="#DDEFFF"/>
<path d="M154.877 47.5359L156.991 52.9484C155.696 53.2011 155.985 52.3965 155.401 51.6983L153.132 51.7515L152.682 52.8952L151.629 52.9484L153.783 47.6356L154.877 47.5359ZM153.488 50.8738H155.24L154.367 48.7926C154.105 48.7394 154.219 48.9056 154.166 49.0453C153.924 49.6437 153.683 50.2554 153.495 50.8672L153.488 50.8738Z" fill="#DDEFFF"/>
<path d="M128.533 47.5226V48.3271H125.969V49.8299H128.298V50.6411H125.969V52.0242H128.533V52.9484H125.036V47.5226H128.533Z" fill="#DDEFFF"/>
<path d="M110.344 48.3271H107.773V49.8299H110.109V50.6411H107.773V52.0242H110.344V52.9484H106.84V47.5226H110.169L110.31 47.6888L110.344 48.3271Z" fill="#DDEFFF"/>
<path d="M175.067 47.5226V48.3271H172.617V49.8299H174.946V50.6411H172.617V52.1438L174.993 52.0441L175.167 52.217L175.181 52.9484H171.684V47.5226H175.067Z" fill="#DDEFFF"/>
<path d="M93.1076 49.3378C93.6109 49.9296 95.6245 49.5771 95.9467 50.9801C96.5038 53.447 92.6646 53.4603 91.9665 52.1438C91.7987 51.8313 92.4229 51.6983 92.5572 51.4522C93.0874 52.2103 94.7855 52.5959 95.054 51.5054C95.054 50.5479 92.8324 50.9203 92.2417 49.7966C91.1611 47.7353 94.5707 46.5717 95.7588 48.2739L95.2218 48.7792C94.6513 48.4734 93.9801 47.988 93.3156 48.3936C93.0471 48.5598 92.9129 49.1117 93.1076 49.3378Z" fill="#DDEFFF"/>
<path d="M168.959 51.7582C169.1 51.6385 169.194 51.3326 169.408 51.2262L170.039 51.838C168.905 53.8128 165.549 53.2277 165.086 51.0002C164.428 47.8351 168.073 46.1196 170.046 48.6264L169.308 49.1317C167.717 47.1303 165.059 49.2448 166.294 51.306C166.838 52.217 168.14 52.4564 168.959 51.7648V51.7582Z" fill="#DDEFFF"/>
<path d="M102.162 48.7792L101.551 49.1316C100.477 47.6754 98.2825 48.3403 98.2086 50.129C98.1281 52.157 100.504 52.8618 101.652 51.2261L102.289 51.7514C101.558 53.4071 98.8127 53.4204 97.8126 52.024C96.1548 49.73 98.3227 46.5184 101.075 47.6355C101.363 47.7552 102.37 48.4268 102.162 48.7792Z" fill="#DDEFFF"/>
<path d="M123.009 48.141C123.137 48.2673 123.224 48.5 123.392 48.6197L122.647 49.145C122.016 47.9149 119.975 48.141 119.546 49.4176C118.76 51.7316 121.371 53.221 122.761 51.2129L123.385 51.7449C122.586 53.6399 119.452 53.3008 118.673 51.5587C117.358 48.5998 120.902 46.0597 123.009 48.1343V48.141Z" fill="#DDEFFF"/>
<path d="M145.212 47.5226V52.0242H147.601L147.742 52.7822L147.601 52.9484H144.279V47.5226H145.212Z" fill="#DDEFFF"/>
<path d="M140.312 47.5226V52.0242H142.762V52.9484H139.379V47.5226H140.312Z" fill="#DDEFFF"/>
<path d="M124.566 59.9965H123.868V56.4126C124.117 56.4325 124.466 56.3394 124.687 56.4724C124.862 56.5721 126.05 58.4605 126.291 58.8063C126.365 58.906 126.271 59.0191 126.553 58.9592V56.4192H127.137V60.0032L126.372 59.8968L124.573 57.3501V60.0098L124.566 59.9965Z" fill="#DDEFFF"/>
<path d="M150.575 56.4193C150.796 56.4525 151.199 56.3461 151.367 56.4459C151.629 56.5988 152.669 58.6867 153.139 58.966V56.4259H153.723V59.837C153.723 59.837 153.897 59.97 153.837 60.0099C153.588 59.99 153.239 60.083 153.018 59.9501C152.622 59.7173 151.696 57.7159 151.152 57.3502V60.0099H150.568V56.4259L150.575 56.4193Z" fill="#DDEFFF"/>
<path d="M164.542 56.3261C167.019 56.0868 167.382 60.0697 164.737 60.1162C162.374 60.1628 162.18 56.5589 164.542 56.3261ZM164.542 56.9046C163.032 57.1241 163.24 59.5843 164.737 59.5444C166.502 59.4979 166.281 56.652 164.542 56.9046Z" fill="#DDEFFF"/>
<path d="M156.73 56.3262C159.28 56.1267 159.461 60.0698 156.924 60.1163C154.555 60.1629 154.333 56.5124 156.73 56.3262ZM156.609 56.9047C155.26 57.164 155.36 59.6841 157.032 59.5312C158.703 59.3782 158.401 56.5656 156.609 56.9047Z" fill="#DDEFFF"/>
<path d="M97.2957 56.3329C99.7523 56.1866 99.9604 60.0432 97.4971 60.123C94.9801 60.2028 94.8996 56.4726 97.2957 56.3329ZM97.1816 56.8981C95.8661 57.1242 95.7788 59.2786 97.1816 59.5113C99.1147 59.8304 99.061 56.5723 97.1816 56.8981Z" fill="#DDEFFF"/>
<path d="M150.226 47.5226H149.179V52.9551H150.226V47.5226Z" fill="#DDEFFF"/>
<path d="M128.533 59.9965V56.4126H130.338C130.338 56.4126 130.828 56.612 130.902 56.6586C131.949 57.2836 131.976 59.0191 130.976 59.6973C130.889 59.7571 130.385 59.9899 130.338 59.9899H128.533V59.9965ZM129.117 59.5377C131.795 59.8635 131.782 56.5854 129.117 56.878V59.5377Z" fill="#DDEFFF"/>
<path d="M102.001 56.4193C102.947 56.6188 103.001 58.3144 101.94 58.4407L102.987 60.0033C102.773 59.9701 102.363 60.0765 102.195 59.9834C102.108 59.9302 101.531 58.8131 101.296 58.6203C101.115 58.474 100.82 58.3543 100.773 58.6735C100.739 58.9062 100.82 59.9568 100.773 60.0033H100.189V56.4193C100.719 56.4925 101.511 56.313 101.994 56.4193H102.001ZM100.779 58.0351C102.558 58.2944 102.551 56.6521 100.779 56.8781V58.0351Z" fill="#DDEFFF"/>
<path d="M171.1 58.3808C171.261 60.575 167.898 60.6482 167.61 58.66C167.314 56.6254 169.449 55.5016 170.737 57.0376L170.435 57.3302C170.234 57.3634 169.784 56.519 168.831 57.0044C167.683 57.5895 168.1 59.4979 169.402 59.5377C169.986 59.5577 170.335 59.325 170.502 58.7797L169.301 58.7066L169.106 58.3808H171.086H171.1Z" fill="#DDEFFF"/>
<path d="M122.935 59.9965C122.056 60.1561 122.204 59.7305 121.814 59.2052H120.271L120.002 59.9765L119.324 59.9965L120.734 56.4325C120.794 56.3793 121.23 56.3992 121.344 56.4325C121.653 56.5389 122.626 59.5178 122.935 59.9965ZM121.653 58.7265L121.13 57.2237L120.492 58.5536C120.66 58.8262 120.841 58.5868 121.123 58.6001C121.304 58.6068 121.472 58.7198 121.653 58.7265Z" fill="#DDEFFF"/>
<path d="M146.024 56.4192H146.608C146.715 56.5256 146.413 57.8355 146.783 58.035H148.588V56.4192H149.172V60.0032H148.588V58.5004H146.608V60.0032H146.024V56.4192Z" fill="#DDEFFF"/>
<path d="M104.86 47.5226V52.9551L104.001 52.9418L103.84 52.7822C103.84 52.7356 103.927 52.6957 103.927 52.6691V47.5292H104.86V47.5226Z" fill="#DDEFFF"/>
<path d="M144.293 58.9726C145.058 58.9859 144.93 59.4846 144.393 59.8171C143.454 60.4022 142.037 60.0232 141.635 58.9793C140.816 56.8848 143.407 55.3621 144.863 57.051L144.46 57.4566C143.36 56.0204 141.427 57.5164 142.339 58.9793C142.769 59.6642 143.964 59.8038 144.299 58.9793L144.293 58.9726Z" fill="#DDEFFF"/>
<path d="M140.547 56.4192V56.878L138.849 56.9844L138.91 57.9818L140.239 57.9352L140.413 58.1081L140.426 58.4938H138.795L138.903 59.4845L140.547 59.5377V59.9965H138.212V56.4192H140.547Z" fill="#DDEFFF"/>
<path d="M116.754 56.4192V56.878H115.009L115.123 57.9818L116.525 57.9751L116.639 58.4938H115.009V59.5377H116.754V59.9965H114.425V56.4192H116.754Z" fill="#DDEFFF"/>
<path d="M113.257 56.4192V56.878L111.673 56.9844L111.626 58.035H113.143V58.4938H111.626V59.9965H111.042V56.4192H113.257Z" fill="#DDEFFF"/>
<path d="M172.597 56.4392C172.67 56.4858 173.214 57.7425 173.375 57.922C173.979 57.3768 173.939 56.1533 174.952 56.4193C174.342 57.656 173.362 58.4872 173.67 60.0032H173.087C173.342 58.567 172.576 57.5829 171.805 56.4791C171.946 56.3927 172.503 56.3794 172.603 56.4392H172.597Z" fill="#DDEFFF"/>
<path d="M160.602 56.4192V59.5377H162.119V59.9965H159.904V56.4192H160.602Z" fill="#DDEFFF"/>
<path d="M137.164 56.4192V56.878H135.997V59.9965H135.413V56.878H134.245V56.4192H137.164Z" fill="#DDEFFF"/>
<path d="M106.377 56.4192V59.5377H108.008V60.0032H105.672C105.639 59.9167 105.786 59.8635 105.786 59.8303V56.5921C105.786 56.5921 105.612 56.4591 105.672 56.4192H106.37H106.377Z" fill="#DDEFFF"/>
<path d="M109.639 56.4192H109.055V60.0032H109.639V56.4192Z" fill="#DDEFFF"/>
<path d="M100.92 40.6604C98.665 40.6604 96.5843 40.2016 94.6647 39.2774C92.7518 38.3531 91.208 37.0432 90.0402 35.3543L93.3424 31.3913C95.2553 34.0311 97.7924 35.3543 100.954 35.3543C102.142 35.3543 103.128 35.075 103.907 34.5098C104.686 33.9447 105.075 33.2132 105.075 32.3156C105.075 31.1386 104.209 30.1479 102.471 29.35C102.263 29.2502 101.316 28.8779 99.6382 28.2329C98.3159 27.7209 97.1883 27.2089 96.2621 26.6969C93.235 24.9814 91.7181 22.6209 91.7181 19.6154C91.7181 17.2283 92.6242 15.2535 94.4365 13.6909C96.2755 12.1017 98.6314 11.3038 101.504 11.3038C105.236 11.3038 108.377 12.5871 110.941 15.1537L107.874 19.3096C107.095 18.4917 106.135 17.8401 104.981 17.368C103.826 16.8959 102.692 16.6565 101.585 16.6565C100.477 16.6565 99.5442 16.9092 98.8864 17.4079C98.2287 17.9066 97.8931 18.5715 97.8931 19.3893C97.8931 20.4931 98.6717 21.4307 100.222 22.1953L103.055 23.4255C104.659 24.0904 105.827 24.5957 106.551 24.9282C109.813 26.4908 111.444 28.8513 111.444 32.0097C111.444 34.5497 110.471 36.6243 108.531 38.2401C106.592 39.8559 104.055 40.6671 100.92 40.6671V40.6604Z" fill="#3897EA"/>
<path d="M138.708 40.1949H132.647L130.513 34.0376H120.492L118.277 40.1949H112.257L123.21 11.7625H127.909L138.708 40.1949ZM128.882 28.9642L125.539 19.5023L122.123 28.9642H128.882Z" fill="#3897EA"/>
<path d="M162.556 40.1949H142.205V11.7625H147.991V34.7292H162.556V40.1949Z" fill="#3897EA"/>
<path d="M167.489 40.1951V17.2683H159.293V11.7694H181.51V17.2683H173.315V40.2018H167.489V40.1951Z" fill="#3897EA"/>
<path d="M67.844 36.1256C67.844 28.419 61.6825 22.1155 53.9839 21.7897C53.655 14.163 47.2921 8.0589 39.5131 8.0589C31.734 8.0589 25.3711 14.163 25.0422 21.7897C17.3437 22.1155 11.1821 28.419 11.1821 36.1256C11.1821 43.8321 17.3437 50.1356 25.0422 50.4615C25.3711 58.0882 31.734 64.1922 39.5131 64.1922C47.2921 64.1922 53.655 58.0882 53.9839 50.4615C61.6825 50.1356 67.844 43.8321 67.844 36.1256ZM39.5131 11.0178C45.7014 11.0178 50.7689 15.8918 51.0038 21.9692C45.5538 22.8536 41.1172 26.7634 39.5131 31.9033C37.9156 26.77 33.4791 22.8602 28.0223 21.9692C28.2572 15.8918 33.318 11.0178 39.5131 11.0178ZM50.7018 25.0412C49.7017 29.217 46.3793 32.5017 42.171 33.4925C43.171 29.3167 46.4934 26.0319 50.7018 25.0412ZM36.8619 33.4925C32.6468 32.5017 29.3311 29.2103 28.331 25.0412C32.5461 26.0319 35.8618 29.3233 36.8619 33.4925ZM14.1756 36.1256C14.1756 29.9949 19.0955 24.9747 25.2301 24.742C26.1228 30.1412 30.0694 34.5364 35.2577 36.1256C30.0761 37.7081 26.1295 42.1033 25.2301 47.5092C19.0955 47.2764 14.1756 42.2629 14.1756 36.1256ZM36.8619 38.752C35.8618 42.9278 32.5394 46.2126 28.331 47.2033C29.3311 43.0275 32.6535 39.7428 36.8619 38.752ZM39.5131 61.2267C33.3247 61.2267 28.2572 56.3527 28.0223 50.2753C33.4723 49.3909 37.9089 45.4811 39.5131 40.3412C41.1105 45.4745 45.5471 49.3843 51.0038 50.2753C50.7689 56.3527 45.7081 61.2267 39.5131 61.2267ZM42.171 38.752C46.386 39.7428 49.7017 43.0342 50.7018 47.2033C46.4867 46.2126 43.171 42.9212 42.171 38.752ZM53.8027 47.5025C52.91 42.1033 48.9634 37.7081 43.7751 36.1189C48.9567 34.5364 52.9033 30.1412 53.8027 24.7353C59.9374 24.9681 64.8572 29.9816 64.8572 36.1189C64.8572 42.2562 59.9374 47.2698 53.8027 47.5025Z" fill="#3897EA"/>
<path d="M39.3519 70.7684C19.6055 70.7684 3.53723 55.1625 3.53723 35.9726C3.53723 16.7827 19.6055 1.17685 39.3519 1.17685C59.0983 1.17685 75.1666 16.7827 75.1666 35.9726C75.1666 55.1625 59.0983 70.7684 39.3519 70.7684ZM39.3519 5.59198C22.0621 5.59198 7.99393 19.223 7.99393 35.9726C7.99393 52.7222 22.0621 66.3532 39.3519 66.3532C56.6418 66.3532 70.7099 52.7222 70.7099 35.9726C70.7099 19.223 56.6418 5.59198 39.3519 5.59198Z" fill="#219CB5"/>
</svg>
