<svg width="36" height="44" viewBox="0 0 36 44" fill="none" xmlns="http://www.w3.org/2000/svg">
<path d="M11.534 12V22L1.67998 36.7812C-0.0921503 39.4394 1.81341 43 5.00824 43H30.06C33.2548 43 35.1604 39.4394 33.3882 36.7812L23.534 22V12" stroke="white" stroke-width="2" stroke-miterlimit="10" stroke-linecap="square"/>
<path d="M27.5342 1H7.53418V7H27.5342V1Z" stroke="white" stroke-width="2" stroke-miterlimit="10" stroke-linecap="square"/>
<path d="M12.0342 38.5C13.6911 38.5 15.0342 37.1569 15.0342 35.5C15.0342 33.8431 13.6911 32.5 12.0342 32.5C10.3773 32.5 9.03418 33.8431 9.03418 35.5C9.03418 37.1569 10.3773 38.5 12.0342 38.5Z" stroke="white" stroke-width="2" stroke-miterlimit="10" stroke-linecap="square"/>
<path d="M17.5342 30C19.1911 30 20.5342 28.6569 20.5342 27C20.5342 25.3431 19.1911 24 17.5342 24C15.8773 24 14.5342 25.3431 14.5342 27C14.5342 28.6569 15.8773 30 17.5342 30Z" stroke="white" stroke-width="2" stroke-miterlimit="10" stroke-linecap="square"/>
<path d="M23.5342 37C24.0865 37 24.5342 36.5523 24.5342 36C24.5342 35.4477 24.0865 35 23.5342 35C22.9819 35 22.5342 35.4477 22.5342 36C22.5342 36.5523 22.9819 37 23.5342 37Z" fill="white" stroke="white" stroke-width="2" stroke-miterlimit="10" stroke-linecap="square"/>
</svg>
