<svg width="93" height="93" viewBox="0 0 93 93" fill="none" xmlns="http://www.w3.org/2000/svg">
<path d="M92.3834 46.2721C92.3834 33.5667 82.3375 23.1744 69.7855 22.6373C69.2493 10.0634 58.875 0 46.1917 0C33.5084 0 23.1342 10.0634 22.5979 22.6373C10.046 23.1744 0 33.5667 0 46.2721C0 58.9774 10.046 69.3698 22.5979 69.9069C23.1342 82.4807 33.5084 92.5442 46.1917 92.5442C58.875 92.5442 69.2493 82.4807 69.7855 69.9069C82.3375 69.3698 92.3834 58.9774 92.3834 46.2721ZM46.1917 4.87825C56.2815 4.87825 64.5437 12.9137 64.9267 22.9332C56.0407 24.3912 48.8072 30.8371 46.1917 39.311C43.5872 30.8481 36.3537 24.4022 27.4568 22.9332C27.8398 12.9137 36.091 4.87825 46.1917 4.87825ZM64.4342 27.9978C62.8037 34.8822 57.3867 40.2976 50.5253 41.931C52.1558 35.0466 57.5728 29.6312 64.4342 27.9978ZM41.8691 41.931C34.9967 40.2976 29.5907 34.8712 27.9602 27.9978C34.8326 29.6312 40.2386 35.0576 41.8691 41.931ZM4.88072 46.2721C4.88072 36.1648 12.9022 27.8882 22.9044 27.5045C24.3598 36.406 30.7945 43.6521 39.2537 46.2721C30.8054 48.8811 24.3708 56.1272 22.9044 65.0396C12.9022 64.6559 4.88072 56.3903 4.88072 46.2721ZM41.8691 50.6022C40.2386 57.4866 34.8216 62.902 27.9602 64.5354C29.5907 57.651 35.0077 52.2356 41.8691 50.6022ZM46.1917 87.655C36.102 87.655 27.8398 79.6196 27.4568 69.6C36.3427 68.142 43.5763 61.6961 46.1917 53.2222C48.7962 61.6851 56.0298 68.131 64.9267 69.6C64.5437 79.6196 56.2924 87.655 46.1917 87.655ZM50.5253 50.6022C57.3977 52.2356 62.8037 57.662 64.4342 64.5354C57.5618 62.902 52.1558 57.4756 50.5253 50.6022ZM69.49 65.0287C68.0346 56.1272 61.5999 48.8811 53.1407 46.2611C61.589 43.6521 68.0236 36.406 69.49 27.4936C79.4922 27.8773 87.5137 36.1429 87.5137 46.2611C87.5137 56.3794 79.4922 64.645 69.49 65.0287Z" fill="#1C5D96"/>
</svg>
